inDegrees=no
num_controls=7
num_derivatives=13
num_iterations=122
num_multipliers=7
num_parameters=0
num_slacks=7
num_states=26
objective=0.469841
objective_accelerations=0.062993
objective_balance=0.002095
objective_effort=0.020075
objective_height=0.375181
objective_ligament=0.009497
solver_duration=1721.075350
status=Solve_Succeeded
success=true
DataType=double
version=3
OpenSimVersion=4.5
endheader
time	/jointset/ground_pelvis/pelvis_tilt/value	/jointset/ground_pelvis/pelvis_tx/value	/jointset/ground_pelvis/pelvis_ty/value	/jointset/hip_l/hip_flexion_l/value	/jointset/hip_l/hip_adduction_l/value	/jointset/hip_l/hip_rotation_l/value	/jointset/back/lumbar_extension/value	/jointset/patellofemoral_l/patellar_flexion_l/value	/jointset/knee_l/knee_flexion_l/value	/jointset/knee_l/knee_adduction_l/value	/jointset/knee_l/knee_rotation_l/value	/jointset/ankle_l/ankle_angle_l/value	/jointset/subtalar_l/subtalar_angle_l/value	/jointset/ground_pelvis/pelvis_tilt/speed	/jointset/ground_pelvis/pelvis_tx/speed	/jointset/ground_pelvis/pelvis_ty/speed	/jointset/hip_l/hip_flexion_l/speed	/jointset/hip_l/hip_adduction_l/speed	/jointset/hip_l/hip_rotation_l/speed	/jointset/back/lumbar_extension/speed	/jointset/patellofemoral_l/patellar_flexion_l/speed	/jointset/knee_l/knee_flexion_l/speed	/jointset/knee_l/knee_adduction_l/speed	/jointset/knee_l/knee_rotation_l/speed	/jointset/ankle_l/ankle_angle_l/speed	/jointset/subtalar_l/subtalar_angle_l/speed	/forceset/tau_hip_flexion_l	/forceset/tau_hip_adduction_l	/forceset/tau_hip_rotation_l	/forceset/tau_knee_flexion_l	/forceset/tau_ankle_angle_l	/forceset/tau_subtalar_angle_l	/forceset/tau_lumbar_extension	lambda_cid13_p0	lambda_cid13_p1	lambda_cid13_p2	lambda_cid13_p3	lambda_cid13_p4	lambda_cid13_p5	lambda_cid14_p0	/jointset/ground_pelvis/pelvis_tilt/accel	/jointset/ground_pelvis/pelvis_tx/accel	/jointset/ground_pelvis/pelvis_ty/accel	/jointset/hip_l/hip_flexion_l/accel	/jointset/hip_l/hip_adduction_l/accel	/jointset/hip_l/hip_rotation_l/accel	/jointset/back/lumbar_extension/accel	/jointset/patellofemoral_l/patellar_flexion_l/accel	/jointset/knee_l/knee_flexion_l/accel	/jointset/knee_l/knee_adduction_l/accel	/jointset/knee_l/knee_rotation_l/accel	/jointset/ankle_l/ankle_angle_l/accel	/jointset/subtalar_l/subtalar_angle_l/accel	gamma_cid13_p0	gamma_cid13_p1	gamma_cid13_p2	gamma_cid13_p3	gamma_cid13_p4	gamma_cid13_p5	gamma_cid14_p0
1.5	-0.5534848747447014	-0.04015624822682209	0.7915180246439787	1.199187010989406	-0.3464914729327831	-0.1187230252257563	-0.3410587129918043	0.5658039239997753	0.5658039239996924	-0.05669658871283289	-0.174463849370474	0.0157716989207151	0.08038006233161159	1.070296832473949	0.4968638722713931	0.4707006366583861	-2.80662462457095	0.001204806830201157	-0.5182489138788194	0.6020729586554077	-1.541698501527028	-1.541698501526936	-0.2069311889755729	0.003361583953610007	0.08670488814438233	0.03322065627469369	-0.2022563780882578	0.00788165084145836	0.007032852339567491	-0.06411869598865716	0.03009225937216372	0.01901205225196012	0.165135805472436	-13.6313973773601	-8.215548947750175	3.707753723225756	-6.656919484972512	-430.1345097581878	-68.43230386523746	-20.19655375087981	0.8083348984633906	0.8450774093760399	-0.6094451031432683	-1.702597482050808	0.2437281769366411	-0.2387446923747555	1.817832079475472	-0.5541573859585793	-0.5541573859586112	-0.342102361018158	0.1773196666114353	0.2933901659470197	0.342805662563073	-2.868114306805415e-08	1.444759912901188e-06	1.721077620912211e-07	2.951426047452884e-07	2.285360133470611e-07	-1.321991926666531e-07	2.14208398275201e-07
1.51	-0.5427422335622278	-0.03514600389646026	0.7961935997526147	1.171038241253129	-0.346468086747717	-0.1239190128700765	-0.3349490679123227	0.5503611114680981	0.5503611114680267	-0.05878364062180468	-0.1744237741715488	0.01665316480192772	0.08072849224091458	1.078057873961341	0.5051067710384833	0.4643113452901492	-2.822726949399054	0.003486966230012635	-0.5208892417896986	0.6197606720274521	-1.546660788153017	-1.546660788152925	-0.2104415434205829	0.004677817046367886	0.08957986889192629	0.03647830559284815	-0.1955021847222353	0.007645840220904159	0.007348348113117823	-0.0622302401374013	0.02661312363692168	0.01787374170673574	0.1600854631127069	-14.61490838870007	-7.761094266359411	3.877592241285116	-5.774517134495932	-426.2839236924927	-67.88587764150395	-20.70374108447372	0.7339781989771589	0.8022176776545176	-0.6690720412553179	-1.503671226523879	0.2224076978111282	-0.2676063969742571	1.729933184053209	-0.4368260802426207	-0.4368260802425701	-0.3495919362820736	0.1123654282090003	0.2833272040805321	0.3189769622184761	-1.947202553337409e-08	1.394187025853885e-06	5.615874903937362e-08	2.817879387825807e-07	2.594636370695144e-07	-1.090218962456596e-07	2.189473642323817e-07
1.52	-0.5319271840798602	-0.03005566626497175	0.8008022017700499	1.142740524019906	-0.3464214893933919	-0.1291395897048069	-0.3286654072555236	0.5348747637142913	0.5348747637142393	-0.06090461406523021	-0.1743698185821718	0.01756313552560071	0.08110984512255448	1.084778492452737	0.5128825324967263	0.4573060184182582	-2.83641412396051	0.005847040682129719	-0.523166751961768	0.6368760741188685	-1.550405545951949	-1.550405545951857	-0.2137154958671777	0.006137662043167188	0.09240585663636894	0.03980525074207699	-0.1887479913561998	0.007410029600367562	0.007663843886708157	-0.06034178428614139	0.02313398790168547	0.01673543116153137	0.1550351207529851	-15.6027409730327	-7.304156368202778	4.045063071184589	-4.872766044994337	-422.495708089937	-67.37237199612144	-21.18897508390041	0.6002502992644777	0.7516499476065861	-0.7326522038740819	-1.219567428721401	0.2593111873977473	-0.1661811446127996	1.703369823349875	-0.3106516205473172	-0.3106516205473198	-0.2948219613351182	0.2060420474196845	0.2835915653267627	0.356664828777939	9.821538579172736e-09	1.365616100035853e-06	-1.798253994829354e-07	2.623436152100065e-07	3.350111427573878e-07	-9.13437529404081e-08	2.469920923722718e-07
1.53	-0.5210500760624043	-0.02488984022837489	0.8053377947800666	1.114317513633686	-0.3463515503116618	-0.1343803006372321	-0.3222138008410111	0.519356763595166	0.5193567635951269	-0.06305879840800675	-0.1743001791238651	0.01850100824807006	0.08152410163997623	1.090454700654617	0.5202087224176677	0.4497181791223938	-2.847780427290329	0.00814875730855557	-0.5249106025980611	0.6533374059639817	-1.552985267076928	-1.552985267076873	-0.2170866380827817	0.007816133540579537	0.09517594861597113	0.04305695979692725	-0.1817111523037767	0.006836061443299932	0.007934657335275751	-0.05926054586465109	0.02099328415452647	0.01532751662831606	0.149803387251444	-16.18303703500023	-6.763961575689142	4.156397862521474	-4.34339209943531	-418.9220928698291	-66.81139543267913	-21.64966962857235	0.5230769855104068	0.7120551647025118	-0.7859057033935556	-1.033991416915691	0.2166408513643409	-0.1684973091252155	1.601344442149295	-0.2003163529163648	-0.200316352922035	-0.3528306178933591	0.1524358197575548	0.2748455511094033	0.3109333980275914	6.045482718070278e-08	1.360422258023921e-06	-5.433468794426086e-07	2.364290304269489e-07	4.579672730335194e-07	-7.950845982063241e-08	2.997991928312906e-07
1.54	-0.5101218517819571	-0.01965296196249573	0.8097946982149344	1.085793074287808	-0.3462583862734477	-0.1396364521332142	-0.3156008151926358	0.5038192294658991	0.5038192294658782	-0.06524560822618351	-0.1742130177268114	0.01946680739770234	0.08197117713878431	1.095001745050925	0.5270929783531851	0.4415681033884953	-2.85669991589229	0.01049203197895128	-0.52625486467386	0.6691519208913859	-1.554312347979635	-1.554312347979617	-0.2202405909471972	0.00964204979221386	0.09799114206887233	0.04636904701933914	-0.1746743132513438	0.006262093286248984	0.00820547078386471	-0.05817930744315528	0.01885258040737407	0.01391960209511955	0.1445716537499062	-16.76622362917168	-6.223214893490381	4.267593097669896	-3.805536371590024	-415.3888196863736	-66.30702299504048	-22.08609391565654	0.3744175381503956	0.6632631505218026	-0.8450994914809011	-0.7302044831496849	0.2676227961917096	-0.08626343251397875	1.57400643980807	-0.06012357609283519	-0.060123576092839	-0.2513840910974529	0.2355309982640631	0.2926118599865616	0.3687404622902616	8.657078027980647e-08	1.366154458653e-06	-7.384481472250204e-07	2.200277319259873e-07	5.370975188225793e-07	-5.515291897317763e-08	3.267285079985305e-07
1.55	-0.499153724304859	-0.01434963827608708	0.8141673635614383	1.057191696083818	-0.3461416033814732	-0.1449040448961184	-0.3088331577302849	0.4882745817893889	0.4882745817894047	-0.06746292299253288	-0.1741068285987425	0.02046074552430981	0.08245158172515557	1.098439011608469	0.5334785337587521	0.4328765813836235	-2.863149439406289	0.01286404659828522	-0.5271902510361115	0.684250892845695	-1.554402174374885	-1.554402174374908	-0.2231966446144359	0.01161981216244887	0.1007852320127044	0.04970859572498334	-0.1679302212276053	0.005737680686777958	0.008463972598281976	-0.05666454158819347	0.01596400651174039	0.01243977476788122	0.1394747804761976	-17.61038289523504	-5.629119054214479	4.397212843292543	-2.977530839668534	-412.0482703702534	-65.689056491662	-22.49815593257498	0.3006990255358808	0.6122602730951712	-0.8943199060533156	-0.5383447754267883	0.2217508654148593	-0.08589999601936289	1.458540763284049	0.04877532324803173	0.04877532324199135	-0.3136371891870801	0.1823050480992754	0.2711580208252949	0.3159388254216293	8.443849899568135e-08	1.384475360585851e-06	-7.395000401075549e-07	2.145873937065703e-07	5.65732723789581e-07	-1.63718753090499e-08	3.238421140252442e-07
1.56	-0.4881567605999894	-0.008985247328118584	0.8184504854176806	1.028538618946707	-0.3460011483291832	-0.1501787362742299	-0.3019183709103824	0.4727354733478201	0.4727354733478793	-0.06970898253248344	-0.1739801806086336	0.02148229464220472	0.08296525714872734	1.10076899060519	0.5393064306651528	0.4236594053362335	-2.867039702516362	0.01522646404204077	-0.527674587715908	0.6985777924016732	-1.553204500990567	-1.55320450099063	-0.2259895456676734	0.01373382220052651	0.1035133403262878	0.05302321445943353	-0.1611861292038605	0.005213268087322006	0.008722474412728724	-0.05514977573322687	0.01307543261611308	0.01095994744065998	0.1343779072024887	-18.4569243393756	-5.034048585145747	4.526041196750744	-2.14417470294808	-408.7404116551978	-65.12323509191349	-22.88533097359287	0.1529600259856704	0.5517314506885628	-0.9502302999845502	-0.2183524023647278	0.2657033610760232	0.003946503976985561	1.419591960141851	0.1973763798209549	0.1973763798209198	-0.2187535682972434	0.2627805318325809	0.2794155339368177	0.3637544680514566	7.999618728513098e-08	1.435947297372132e-06	-7.24470610109596e-07	2.141940446604911e-07	5.925756472871646e-07	2.15374925149715e-08	3.233380766672172e-07
1.57	-0.4771420520248744	-0.003565431622363007	0.8226389186402272	0.9998593823528703	-0.3458371134708748	-0.1554563291980512	-0.294864363223752	0.4572146635234312	0.4572146635233981	-0.07198204748324706	-0.1738319421091275	0.02253072219345266	0.08351193823852494	1.101982197677715	0.5445565184128076	0.4139483264384797	-2.86836870967715	0.01757539854235133	-0.527761438031996	0.7120804317358547	-1.55073660983802	-1.55073660983795	-0.2285990486443153	0.01594017349595426	0.1061601498894955	0.05630471261484975	-0.1544909484358512	0.00446433855288815	0.008945741526617056	-0.05388156570287759	0.01051512912865873	0.009393158950930132	0.129301331640883	-19.22108146461699	-4.405068282726548	4.637391893538992	-1.36173982795477	-405.7499806413304	-64.56250183526021	-23.24735084239896	0.07694552423427105	0.4966633288731886	-0.9932573261929011	-0.02430463605751916	0.2185175656827853	-0.002357040939910607	1.294102941783569	0.3045581430796848	0.3045581430995659	-0.2781340399228641	0.2033147923574646	0.2555530285931609	0.3089340104061225	7.266633754154907e-08	1.528858027725198e-06	-6.893395265110207e-07	2.20109432081084e-07	6.171782189479758e-07	5.835726553886001e-08	3.258119850782642e-07
1.58	-0.4661209224837639	0.001903888139282934	0.8267278989454916	0.9711800297348016	-0.3456497834533278	-0.1607322618733399	-0.2876796285394344	0.4417251451425902	0.4417251451424653	-0.0742804245392987	-0.1736608896238714	0.023605265712549	0.08409115161410065	1.102053183804174	0.5492072418432256	0.4037688218798428	-2.867062907362808	0.01988549588962849	-0.5273425380096117	0.7247231919391275	-1.546946212281149	-1.546946212280947	-0.2310519667239643	0.01829661934976576	0.1087365338959202	0.0595296716150433	-0.1477957676678415	0.003715409018461543	0.009169008640491231	-0.05261335567252305	0.007954825641208941	0.007826370461209266	0.1242247560792734	-19.98706699422689	-3.774598912361267	4.747170929956375	-0.5761788796870778	-402.7822970163463	-64.04899799584425	-23.58428232416812	-0.07548416322743666	0.431858587241179	-1.043915432161198	0.3086094926613727	0.2579359304693358	0.1050965716714425	1.247616133960105	0.4618776606855384	0.4618776606855467	-0.1874365888986819	0.2927994435093297	0.2653304225802151	0.3524466370069204	6.474167728117065e-08	1.618443727664559e-06	-6.525409649648213e-07	2.253976009540471e-07	6.402608175734976e-07	9.562460419387081e-08	3.272084970656953e-07
1.59	-0.4551048163939579	0.007416647879466822	0.830712861431725	0.9425268848493403	-0.3454394886395963	-0.166001954959622	-0.2803729356875175	0.4262800364351333	0.4262800364350809	-0.07660228926292997	-0.1734658842369366	0.02470514660032065	0.08470237311627651	1.100972749688427	0.5532373509926679	0.39315524740625	-2.863113703543323	0.02216584227459373	-0.5265220970975266	0.7364577105037566	-1.541847325976637	-1.541847325976678	-0.2332876321874549	0.02071659670832423	0.1112266798477192	0.06270360402279518	-0.1411850387493505	0.002847494524182028	0.009346526966273522	-0.05157968934140154	0.005702818803610643	0.006111640913184326	0.1191981392822161	-20.68470229173618	-3.082637434161812	4.836626672626316	0.1741606786802276	-400.1964312252584	-63.48543582237761	-23.89642918960121	-0.1535983521599188	0.372530294405477	-1.080207887539927	0.5059594249775655	0.2116986402395613	0.08186895186097905	1.112719526653707	0.5680591795935063	0.568059179557013	-0.2363429549786286	0.2182352520754382	0.2389579355436273	0.2980068015502977	5.600977417656842e-08	1.703516886328178e-06	-6.134793976325604e-07	2.298345446552268e-07	6.612805956511269e-07	1.334993533482618e-07	3.271428281925045e-07
